<svg width="18" height="18" viewBox="0 0 18 18" fill="none" xmlns="http://www.w3.org/2000/svg">
<g id="Icon/32px/NMap">
<path id="Vector" d="M16.502 8.61504C15.0721 5.82513 12.2413 3.9375 8.99999 3.9375C5.75867 3.9375 2.92709 5.82645 1.49799 8.6153C1.43768 8.73462 1.40625 8.86644 1.40625 9.00013C1.40625 9.13383 1.43768 9.26565 1.49799 9.38496C2.92789 12.1749 5.75867 14.0625 8.99999 14.0625C12.2413 14.0625 15.0729 12.1736 16.502 9.3847C16.5623 9.26538 16.5937 9.13356 16.5937 8.99987C16.5937 8.86617 16.5623 8.73435 16.502 8.61504ZM8.99999 12.7969C8.24903 12.7969 7.51495 12.5742 6.89055 12.157C6.26616 11.7398 5.77951 11.1468 5.49213 10.453C5.20475 9.75921 5.12956 8.99579 5.27607 8.25927C5.42257 7.52274 5.78419 6.84621 6.31519 6.3152C6.84619 5.7842 7.52273 5.42258 8.25925 5.27608C8.99577 5.12958 9.7592 5.20477 10.453 5.49214C11.1468 5.77952 11.7398 6.26618 12.157 6.89057C12.5742 7.51496 12.7969 8.24905 12.7969 9C12.7971 9.49868 12.6991 9.99252 12.5083 10.4533C12.3176 10.9141 12.0379 11.3327 11.6853 11.6853C11.3327 12.038 10.914 12.3176 10.4533 12.5083C9.99251 12.6991 9.49867 12.7971 8.99999 12.7969ZM8.99999 6.46875C8.77405 6.47191 8.54958 6.50552 8.33263 6.56868C8.51146 6.8117 8.59727 7.11076 8.57451 7.41163C8.55175 7.71249 8.42193 7.99524 8.20857 8.20859C7.99522 8.42194 7.71248 8.55177 7.41161 8.57453C7.11075 8.59729 6.81169 8.51147 6.56867 8.33265C6.43028 8.84248 6.45526 9.38287 6.64009 9.87776C6.82492 10.3727 7.16029 10.7971 7.59899 11.0914C8.0377 11.3857 8.55765 11.5351 9.08567 11.5184C9.61369 11.5017 10.1232 11.3199 10.5424 10.9985C10.9617 10.677 11.2696 10.2322 11.4228 9.72668C11.576 9.22111 11.5669 8.68021 11.3966 8.18013C11.2263 7.68005 10.9035 7.24596 10.4736 6.93896C10.0436 6.63196 9.52826 6.46751 8.99999 6.46875Z" fill="#757F99"/>
</g>
</svg>
