<svg width="32" height="32" viewBox="0 0 32 32" fill="none" xmlns="http://www.w3.org/2000/svg">
<g id="Icon/32px/NMap">
<path id="Vector" d="M29.3371 15.3156C26.7951 10.3558 21.7626 7 16.0002 7C10.2379 7 5.20397 10.3581 2.66334 15.3161C2.55611 15.5282 2.50024 15.7626 2.50024 16.0002C2.50024 16.2379 2.55611 16.4723 2.66334 16.6844C5.20537 21.6442 10.2379 25 16.0002 25C21.7626 25 26.7965 21.6419 29.3371 16.6839C29.4443 16.4718 29.5002 16.2374 29.5002 15.9998C29.5002 15.7621 29.4443 15.5277 29.3371 15.3156ZM16.0002 22.75C14.6652 22.75 13.3602 22.3541 12.2501 21.6124C11.1401 20.8707 10.2749 19.8165 9.76403 18.5831C9.25314 17.3497 9.11947 15.9925 9.37992 14.6831C9.64037 13.3738 10.2832 12.171 11.2272 11.227C12.1713 10.283 13.374 9.64015 14.6834 9.3797C15.9927 9.11925 17.3499 9.25292 18.5833 9.76381C19.8167 10.2747 20.8709 11.1399 21.6126 12.2499C22.3543 13.3599 22.7502 14.665 22.7502 16C22.7507 16.8865 22.5764 17.7645 22.2373 18.5836C21.8982 19.4028 21.401 20.1471 20.7742 20.7739C20.1473 21.4008 19.403 21.898 18.5838 22.2371C17.7647 22.5761 16.8868 22.7504 16.0002 22.75ZM16.0002 11.5C15.5986 11.5056 15.1995 11.5654 14.8138 11.6777C15.1317 12.1097 15.2843 12.6414 15.2438 13.1762C15.2034 13.7111 14.9726 14.2138 14.5933 14.593C14.214 14.9723 13.7113 15.2031 13.1764 15.2436C12.6416 15.2841 12.1099 15.1315 11.6779 14.8136C11.4319 15.72 11.4763 16.6807 11.8049 17.5605C12.1334 18.4403 12.7296 19.1949 13.5096 19.7181C14.2895 20.2413 15.2139 20.5068 16.1525 20.4771C17.0912 20.4475 17.997 20.1242 18.7423 19.5528C19.4877 18.9814 20.0351 18.1907 20.3075 17.2919C20.5799 16.3931 20.5636 15.4315 20.2608 14.5425C19.9581 13.6534 19.3842 12.8817 18.6199 12.3359C17.8556 11.7901 16.9394 11.4978 16.0002 11.5Z" fill="white"/>
</g>
</svg>
